<svg width="19" height="22" viewBox="0 0 19 22" fill="none" xmlns="http://www.w3.org/2000/svg">
<path d="M16.1847 2.61295C12.4959 -0.870983 6.5388 -0.870983 2.76665 2.61295C-0.922217 6.09688 -0.922217 11.723 2.76665 15.2856L9.47813 21.6242L16.1896 15.2856C18.0365 13.5413 18.9575 11.2464 18.9575 8.94695C18.9575 6.64747 18.0365 4.3526 16.1896 2.60832L16.1847 2.61295ZM9.47323 13.2267C6.9552 13.2267 4.85848 11.2464 4.85848 8.8683C4.85848 6.49016 6.9552 4.50991 9.47323 4.50991C11.9913 4.50991 14.088 6.49016 14.088 8.8683C14.088 11.2464 12.0745 13.2267 9.47323 13.2267Z" fill="#4A69FF"/>
</svg>
